# Blender v2.79 (sub 0) OBJ File: 'FloppyJam_Assets_01.blend'
# www.blender.org
v -0.682993 -0.682993 -0.682993
v -0.682993 -0.682993 0.682993
v -0.682993 0.682993 -0.682993
v -0.682993 0.682993 0.682993
v 0.682993 -0.682993 -0.682993
v 0.682993 -0.682993 0.682993
v 0.682993 0.682993 -0.682993
v 0.682993 0.682993 0.682993
v -0.415133 -0.554027 -0.959248
v -1.156699 0.220641 -0.113148
v 0.571617 0.390558 -0.959248
v -0.169949 1.165227 -0.113147
v 0.169949 -1.165227 0.113147
v -0.571617 -0.390558 0.959248
v 1.156699 -0.220641 0.113148
v 0.415133 0.554027 0.959248
vt 0.206906 0.191281
vt 0.324344 0.191281
vt 0.324344 0.308719
vt 0.206906 0.308719
vt 0.206906 0.191281
vt 0.324344 0.191281
vt 0.324344 0.308719
vt 0.206906 0.308719
vt 0.206906 0.191281
vt 0.324344 0.191281
vt 0.324344 0.308719
vt 0.206906 0.308719
vt 0.206906 0.191281
vt 0.324344 0.191281
vt 0.324344 0.308719
vt 0.206906 0.308719
vt 0.324344 0.191281
vt 0.324344 0.308719
vt 0.206906 0.191281
vt 0.206906 0.308719
vt 0.171489 0.155864
vt 0.359761 0.155864
vt 0.359761 0.344136
vt 0.171489 0.344136
vt 0.171489 0.155864
vt 0.359761 0.155864
vt 0.359761 0.344136
vt 0.171489 0.344136
vt 0.171489 0.155864
vt 0.359761 0.155864
vt 0.359761 0.344136
vt 0.171489 0.344136
vt 0.171489 0.155864
vt 0.359761 0.155864
vt 0.359761 0.344136
vt 0.171489 0.344136
vt 0.359761 0.155864
vt 0.359761 0.344136
vt 0.171489 0.155864
vt 0.171489 0.344136
vn -1.0000 0.0000 0.0000
vn 0.0000 1.0000 0.0000
vn 1.0000 0.0000 0.0000
vn 0.0000 -1.0000 0.0000
vn 0.0000 0.0000 -1.0000
vn 0.0000 0.0000 1.0000
vn -0.4283 0.4474 -0.7851
vn 0.7224 0.6915 0.0000
vn 0.4283 -0.4474 0.7851
vn -0.7224 -0.6915 -0.0000
vn 0.5429 -0.5671 -0.6194
vn -0.5429 0.5671 0.6194
s off
f 1/1/1 2/2/1 4/3/1 3/4/1
f 3/5/2 4/6/2 8/7/2 7/8/2
f 7/9/3 8/10/3 6/11/3 5/12/3
f 5/13/4 6/14/4 2/15/4 1/16/4
f 3/5/5 7/17/5 5/18/5 1/16/5
f 8/19/6 4/6/6 2/15/6 6/20/6
f 9/21/7 10/22/7 12/23/7 11/24/7
f 11/25/8 12/26/8 16/27/8 15/28/8
f 15/29/9 16/30/9 14/31/9 13/32/9
f 13/33/10 14/34/10 10/35/10 9/36/10
f 11/25/11 15/37/11 13/38/11 9/36/11
f 16/39/12 12/26/12 10/35/12 14/40/12
