# Blender v2.79 (sub 0) OBJ File: 'untitled.blend'
# www.blender.org
o Cube
v -1.000000 -1.000000 -1.000000
v -1.000000 -1.000000 1.000000
v -1.000000 1.000000 -1.000000
v -1.000000 1.000000 1.000000
v 1.000000 -1.000000 -1.000000
v 1.000000 -1.000000 1.000000
v 1.000000 1.000000 -1.000000
v 1.000000 1.000000 1.000000
vt 0.256811 0.016306
vt 0.501591 0.338443
vt 0.256811 0.338443
vt 0.746371 0.338443
vt 0.501591 0.660580
vt 0.501591 0.982718
vt 0.256811 0.660580
vt 0.012031 0.660580
vt 0.991152 0.660580
vt 0.746371 0.660580
vt 0.501591 0.016306
vt 0.256811 0.982718
vt 0.012031 0.338443
vt 0.991152 0.338443
vn -1.0000 0.0000 0.0000
vn 0.0000 1.0000 0.0000
vn 1.0000 0.0000 0.0000
vn 0.0000 -1.0000 0.0000
vn 0.0000 0.0000 -1.0000
vn 0.0000 0.0000 1.0000
s off
f 2/1/1 3/2/1 1/3/1
f 4/4/2 7/5/2 3/2/2
f 8/6/3 5/7/3 7/5/3
f 6/8/4 1/3/4 5/7/4
f 7/5/5 1/3/5 3/2/5
f 4/4/6 6/9/6 8/10/6
f 2/1/1 4/11/1 3/2/1
f 4/4/2 8/10/2 7/5/2
f 8/6/3 6/12/3 5/7/3
f 6/8/4 2/13/4 1/3/4
f 7/5/5 5/7/5 1/3/5
f 4/4/6 2/14/6 6/9/6
t Default.png