# Blender v2.79 (sub 0) OBJ File: 'FloppyJam_Assets_01.blend'
# www.blender.org
v 1.500000 -0.000000 3.000000
v 1.500000 0.000000 -0.000000
v -1.500000 -0.000000 3.000000
v -1.500000 0.000000 0.000000
v 1.500000 0.145739 3.000000
v 1.500000 0.145740 -0.000000
v -1.500000 0.145739 3.000000
v -1.500000 0.145740 0.000000
vt 0.500032 0.998186
vt 0.000061 0.998186
vt 0.000061 0.500061
vt 0.500032 0.500061
vt 0.500154 0.998186
vt 0.500154 0.502588
vt 1.000124 0.502588
vt 1.000124 0.998186
vt 0.993361 0.497283
vt 1.488125 0.497282
vt 1.488125 0.521318
vt 0.993361 0.521319
vt 0.498587 0.497284
vt 0.498587 0.521320
vt 0.003803 0.971668
vt 0.498587 0.971668
vt 0.498587 0.995705
vt 0.003803 0.995705
vt -0.490990 0.502204
vt 0.003803 0.502205
vt 0.003803 0.526242
vt -0.490990 0.526241
vn 0.0000 1.0000 0.0000
vn -0.0000 -1.0000 -0.0000
vn 0.0000 -0.0000 1.0000
vn 1.0000 0.0000 -0.0000
vn -0.0000 0.0000 -1.0000
vn -1.0000 0.0000 0.0000
s off
f 3/1/1 1/2/1 2/3/1 4/4/1
f 7/5/2 8/6/2 6/7/2 5/8/2
f 4/9/3 2/10/3 6/11/3 8/12/3
f 3/13/4 4/9/4 8/12/4 7/14/4
f 1/15/5 3/16/5 7/17/5 5/18/5
f 2/19/6 1/20/6 5/21/6 6/22/6
