# Blender v2.79 (sub 0) OBJ File: 'FloppyJam_Assets_01.blend'
# www.blender.org
o Cube
v -1.200000 -0.000000 -0.000000
v 1.200000 0.000000 0.000000
v -0.000000 -0.240000 0.240000
v -0.000000 0.240000 0.240000
v 0.000000 0.240000 -0.240000
v 0.000000 -0.240000 -0.240000
vt 0.247492 0.864867
vt 0.153677 0.864867
vt 0.153677 0.610625
vt 0.247492 0.864867
vt 0.153677 0.610625
vt 0.247492 0.864867
vt 0.153677 0.610625
vt 0.247492 0.864867
vt 0.153677 0.610625
vt 0.247492 0.864867
vt 0.153677 0.864867
vt 0.153677 0.864867
vt 0.153677 0.864867
vt 0.153677 0.864867
vn 0.1961 0.0000 0.9806
vn 0.1961 0.9806 0.0000
vn 0.1961 0.0000 -0.9806
vn 0.1961 -0.9806 0.0000
vn -0.1961 -0.9806 -0.0000
vn -0.1961 -0.0000 -0.9806
vn -0.1961 0.9806 -0.0000
vn -0.1961 -0.0000 0.9806
s off
f 3/1/1 2/2/1 4/3/1
f 4/4/2 2/2/2 5/5/2
f 5/6/3 2/2/3 6/7/3
f 6/8/4 2/2/4 3/9/4
f 1/10/5 6/11/5 3/9/5
f 1/10/6 5/12/6 6/7/6
f 1/10/7 4/13/7 5/5/7
f 1/10/8 3/14/8 4/3/8
